# xmcd
#
# Track frame offsets:
# 150
# 18393
# 33393
# 50679
# 66384
# 86227
# 106932
# 120210
# 134942
# 148835
#
# Disc length: 2168 seconds
#
# Revision: 1
# Processed by: cddbd v1.5.1PL0 Copyright (c) Steve Scherf et al.
# Submitted via: CedeCatalogueitor 2.6.0.6 http://personales.ya.com/cdcatalogueitor
#
DISCID=9508760a
DTITLE=Ella Baila Sola - Colección Grandes
DYEAR=2004
DGENRE=
TTITLE0=Lo Echamos A Suertes
TTITLE1=Despídete
TTITLE2=Que Se Me Va Las Manos
TTITLE3=Ella Baila Sola
TTITLE4=Y Quisiera
TTITLE5=Mujer Florero
TTITLE6=Por Ti
TTITLE7=Cuando Los Sapos Bailen Flamenco
TTITLE8=Mejor Sin Ti
TTITLE9=Beso Eterno
EXTD=
EXTT0=
EXTT1=
EXTT2=
EXTT3=
EXTT4=
EXTT5=
EXTT6=
EXTT7=
EXTT8=
EXTT9=
PLAYORDER=
